<?xml version="1.0" standalone="no"?>
<!DOCTYPE svg PUBLIC "-//W3C//DTD SVG 20010904//EN"
 "http://www.w3.org/TR/2001/REC-SVG-20010904/DTD/svg10.dtd">
<svg version="1.0" xmlns="http://www.w3.org/2000/svg"
 width="900.000000pt" height="900.000000pt" viewBox="0 0 900.000000 900.000000"
 preserveAspectRatio="xMidYMid meet">
<metadata>
Created by potrace 1.14, written by Peter Selinger 2001-2017
</metadata>
<g transform="translate(0.000000,900.000000) scale(0.100000,-0.100000)"
fill="#000000" stroke="none">
<path d="M5095 8375 c-22 -11 -49 -36 -60 -55 -19 -33 -20 -53 -20 -315 -1
-339 -11 -399 -93 -537 -41 -69 -156 -181 -240 -232 -61 -38 -61 -38 -189 -42
-70 -2 -141 -6 -158 -8 -100 -14 -167 -17 -219 -7 -212 39 -448 250 -538 481
-24 60 -66 234 -84 341 -20 125 -51 218 -84 251 -50 50 -123 30 -136 -37 -8
-42 22 -134 81 -254 151 -306 185 -457 145 -651 -16 -83 -17 -84 -29 -55 -16
38 -40 65 -68 76 -32 12 -89 -8 -117 -42 -44 -52 -34 -89 56 -211 l50 -68 -34
-42 c-18 -24 -44 -53 -58 -65 -41 -37 -177 -113 -203 -113 -34 0 -138 43 -189
78 -96 67 -163 156 -239 320 -143 305 -168 345 -235 377 -62 29 -145 -1 -190
-68 -55 -83 -29 -152 108 -281 281 -268 312 -304 359 -416 33 -77 54 -187 45
-234 -8 -43 -26 -50 -167 -71 -243 -36 -392 7 -545 160 -44 44 -117 126 -162
182 -53 66 -99 112 -128 129 -41 24 -49 26 -84 15 -24 -7 -49 -25 -64 -44 -69
-91 -26 -154 179 -267 304 -167 401 -309 412 -605 6 -150 -7 -227 -42 -243
-39 -18 -58 -57 -52 -103 4 -33 -1 -51 -27 -98 -40 -69 -96 -188 -96 -200 0
-17 -99 -104 -168 -150 -201 -131 -369 -169 -562 -127 -41 9 -158 50 -260 90
-227 91 -237 94 -322 87 -27 -2 -84 -67 -96 -109 -18 -59 8 -125 62 -159 36
-24 54 -27 151 -31 88 -3 114 -8 130 -22 30 -28 94 -38 260 -44 83 -3 174 -10
203 -16 115 -21 257 -162 367 -362 35 -65 37 -71 37 -170 0 -57 9 -157 19
-223 22 -148 24 -225 6 -225 -20 0 -54 -41 -61 -75 -4 -20 0 -43 14 -70 20
-39 20 -39 0 -92 -44 -117 -95 -200 -176 -285 -83 -87 -208 -141 -399 -172
-245 -41 -291 -56 -322 -103 -32 -49 -11 -141 40 -172 50 -32 121 -10 272 80
105 63 221 121 285 142 118 39 263 28 409 -32 58 -23 172 -85 200 -107 9 -8
-55 -87 -98 -123 -93 -76 -168 -113 -369 -182 -255 -88 -323 -136 -322 -231 1
-43 38 -117 71 -141 34 -25 101 -33 141 -17 47 19 131 83 218 165 206 197 334
274 483 290 59 6 64 4 97 -45 13 -19 47 -64 75 -100 120 -149 155 -224 170
-356 l6 -61 -89 -61 c-119 -82 -152 -120 -152 -176 0 -38 5 -48 35 -75 48 -42
92 -42 139 0 l35 31 -18 -54 c-46 -130 -111 -217 -322 -434 -212 -217 -239
-265 -181 -324 64 -63 142 -7 256 185 204 343 315 455 538 539 146 54 323 71
429 40 30 -9 119 -47 199 -84 80 -38 181 -78 225 -91 48 -13 91 -33 108 -48
36 -33 103 -169 118 -240 11 -52 8 -212 -5 -273 -9 -38 -65 -192 -126 -343
-86 -211 -79 -300 26 -346 96 -43 202 11 217 110 2 12 15 33 29 48 14 16 28
36 31 45 3 10 7 102 7 206 1 103 6 210 12 238 35 175 105 274 268 380 117 76
142 83 292 85 73 1 187 10 253 20 197 30 288 23 462 -32 109 -35 105 -29 128
-174 25 -151 44 -213 73 -235 35 -28 78 -26 98 5 25 38 13 92 -45 212 -28 58
-51 107 -51 109 0 2 28 -13 61 -33 175 -107 268 -254 320 -501 54 -257 78
-326 127 -360 58 -42 155 -20 196 43 39 60 12 138 -108 315 -102 149 -139 219
-172 320 -33 103 -38 236 -10 340 27 104 67 210 77 204 20 -12 81 -146 154
-334 78 -199 144 -290 212 -290 37 0 81 27 98 60 37 72 -8 161 -202 396 -102
123 -139 177 -176 250 l-26 51 32 52 c47 74 115 140 252 246 66 51 134 107
150 125 17 18 40 36 52 40 31 13 149 -7 210 -35 62 -28 161 -124 251 -242 91
-120 139 -152 199 -132 66 21 93 93 61 157 -11 21 -97 92 -111 92 -13 0 -194
113 -236 147 -54 45 -99 107 -123 170 -10 26 -16 48 -15 49 13 13 204 67 282
80 163 26 271 11 410 -59 82 -40 128 -73 266 -189 203 -168 273 -202 344 -164
51 28 77 71 79 130 2 91 -53 133 -273 206 -274 92 -378 147 -480 255 -93 99
-163 252 -196 428 -20 104 -19 168 3 235 14 44 27 63 67 95 101 81 259 137
387 137 82 0 209 -25 323 -65 100 -35 215 -65 247 -65 97 0 128 103 44 147
-17 9 -77 19 -141 25 -300 24 -355 30 -417 48 -63 17 -159 63 -201 94 -14 11
-16 19 -7 40 22 58 4 132 -41 175 -29 27 -83 51 -114 51 -21 0 -23 5 -27 63
-10 188 224 530 428 624 119 54 233 71 503 74 215 2 288 24 311 95 25 76 -7
153 -77 185 -56 26 -88 19 -328 -76 -224 -88 -276 -100 -415 -99 -97 1 -126 5
-189 27 -116 42 -297 149 -285 169 8 13 93 54 139 67 54 16 194 41 227 41 44
0 121 30 151 58 21 20 27 35 27 67 0 49 -22 82 -66 101 -44 18 -97 1 -208 -69
-45 -27 -115 -66 -156 -86 -71 -34 -81 -36 -176 -36 -124 0 -128 3 -179 123
-49 113 -84 176 -155 281 -90 133 -133 248 -146 396 l-6 70 60 61 c70 72 138
125 287 224 156 104 217 152 248 197 72 104 -18 218 -127 162 -56 -29 -100
-72 -236 -234 -65 -77 -145 -166 -178 -198 l-60 -59 13 79 c34 203 104 297
372 499 142 108 193 164 193 213 0 72 -69 141 -141 141 -49 0 -106 -51 -165
-148 -177 -288 -252 -375 -380 -437 -41 -20 -77 -35 -80 -32 -2 2 2 17 11 33
8 16 15 36 15 45 0 22 -42 59 -68 59 -31 0 -83 -50 -122 -119 l-35 -60 -120 0
c-192 0 -300 25 -440 102 -91 50 -273 137 -288 137 -42 1 -125 42 -155 77 -94
108 -164 221 -192 307 -17 52 0 147 48 276 69 187 81 225 82 253 0 33 -26 87
-41 87 -7 0 -8 7 -4 18 4 9 18 53 31 97 43 144 27 213 -59 253 -53 25 -78 24
-132 -3z"/>
</g>
</svg>
